<svg width="20" height="34" viewBox="0 0 20 34" fill="none" xmlns="http://www.w3.org/2000/svg">
<path d="M11.8166 33.8865H6.42474C5.52413 33.8865 4.79152 33.1539 4.79152 32.2533V20.0918H1.64582C0.745214 20.0918 0.0126038 19.3589 0.0126038 18.4586V13.2473C0.0126038 12.3467 0.745214 11.6141 1.64582 11.6141H4.79152V9.0045C4.79152 6.41699 5.60402 4.21556 7.14091 2.6386C8.68474 1.05444 10.8422 0.217285 13.3802 0.217285L17.4922 0.223964C18.3913 0.225505 19.1226 0.958115 19.1226 1.85718V6.6957C19.1226 7.5963 18.3903 8.32891 17.4899 8.32891L14.7213 8.32994C13.877 8.32994 13.662 8.49922 13.616 8.55111C13.5402 8.63717 13.45 8.88043 13.45 9.55216V11.6138H17.2819C17.5703 11.6138 17.8498 11.685 18.09 11.8191C18.6081 12.1086 18.9302 12.656 18.9302 13.2476L18.9282 18.4588C18.9282 19.3589 18.1956 20.0915 17.295 20.0915H13.45V32.2533C13.45 33.1539 12.7172 33.8865 11.8166 33.8865ZM6.76536 31.9127H11.476V19.2081C11.476 18.6068 11.9653 18.1177 12.5664 18.1177H16.9543L16.9561 13.5879H12.5661C11.965 13.5879 11.476 13.0988 11.476 12.4975V9.55216C11.476 8.78102 11.5543 7.90404 12.1364 7.2449C12.8397 6.44807 13.9481 6.35611 14.7208 6.35611L17.1488 6.35508V2.19729L13.3786 2.19112C9.29995 2.19112 6.76536 4.80201 6.76536 9.0045V12.4975C6.76536 13.0986 6.27627 13.5879 5.67518 13.5879H1.98644V18.1177H5.67518C6.27627 18.1177 6.76536 18.6068 6.76536 19.2081V31.9127ZM17.4884 2.1978H17.4886H17.4884Z" fill="#999999"/>
</svg>
