<svg width="31" height="34" viewBox="0 0 31 34" fill="none" xmlns="http://www.w3.org/2000/svg">
<path d="M7.50349 10.063H1.82756C1.19128 10.063 0.673676 10.5806 0.673676 11.2169V32.6077C0.673676 33.2437 1.19128 33.7613 1.82756 33.7613H7.50349C8.13952 33.7613 8.65712 33.2437 8.65712 32.6077V11.2169C8.65712 10.5806 8.13952 10.063 7.50349 10.063ZM6.68149 31.7857H2.64931V12.0386H6.68149V31.7857Z" fill="#999999"/>
<path d="M4.66554 0.0922852C2.44613 0.0922852 0.640808 1.89761 0.640808 4.11676C0.640808 6.33617 2.44613 8.14149 4.66554 8.14149C6.88444 8.14149 8.69002 6.33617 8.69002 4.11676C8.69002 1.89761 6.88469 0.0922852 4.66554 0.0922852ZM4.66554 6.16586C3.53554 6.16586 2.61644 5.24676 2.61644 4.11676C2.61644 2.98702 3.53554 2.06792 4.66554 2.06792C5.79528 2.06792 6.71438 2.98702 6.71438 4.11676C6.71438 5.2465 5.79528 6.16586 4.66554 6.16586Z" fill="#999999"/>
<path d="M27.0137 12.5711C25.6569 11.4385 23.932 10.8328 22.1585 10.8657C21.057 10.886 19.9807 11.1516 19.0054 11.6325V11.1655C19.0054 10.5569 18.5119 10.0635 17.9034 10.0635H12.1242C11.5156 10.0635 11.0222 10.5569 11.0222 11.1655V32.6596C11.0222 33.2684 11.5156 33.7616 12.1242 33.7616H18.0174C18.563 33.7616 19.0054 33.3192 19.0054 32.7739V19.9586C19.0054 18.8615 19.8639 17.9331 20.9602 17.9005C22.0997 17.8669 23.0373 18.7836 23.0373 19.9157V32.7944C23.0373 33.3285 23.4704 33.7616 24.0044 33.7616H29.6683C30.2023 33.7616 30.6354 33.3285 30.6354 32.7944V20.3074C30.6354 17.3123 29.3154 14.4923 27.0137 12.5711ZM28.6598 31.7859H25.0132V19.9157C25.0132 17.7148 23.2225 15.9241 21.0213 15.9241C18.8204 15.9241 17.0297 17.7148 17.0297 19.9157V31.7859H12.9978V12.0389H17.0297V13.4745H17.031C17.0308 13.7073 17.1117 13.941 17.2781 14.1293C17.6396 14.5377 18.264 14.5758 18.6725 14.2141C19.6458 13.3525 20.8968 12.865 22.195 12.8408C23.4945 12.8162 24.7558 13.2595 25.7479 14.0877C27.5986 15.6325 28.6598 17.8995 28.6598 20.3074V31.7859Z" fill="#999999"/>
</svg>
