<svg width="35" height="29" viewBox="0 0 35 29" fill="none" xmlns="http://www.w3.org/2000/svg">
<path d="M13.5521 28.3401C7.93265 28.3401 3.49126 27.3583 1.36638 25.647L1.32503 25.6136L1.28752 25.5761C0.782762 25.0711 0.617334 24.4086 0.834137 23.7587L0.853917 23.7048C1.11696 23.0469 1.76146 22.6041 2.45991 22.5999C3.89738 22.575 5.15505 22.4037 6.29635 22.071C4.47587 21.2244 3.21127 19.7584 2.45888 17.6366C2.20585 16.9749 2.4242 16.2412 3.00731 15.8038C3.15116 15.6956 3.31376 15.6139 3.48587 15.5592C2.47429 14.3915 1.72704 13.0627 1.30859 11.6573L1.29549 11.6136L1.2865 11.5689C1.14444 10.8581 1.4622 10.1273 2.04454 9.81266C2.28883 9.67241 2.55418 9.59971 2.82056 9.59354C2.53337 8.97499 2.32453 8.33999 2.20072 7.70114C1.85702 5.93075 2.14061 4.15599 3.04327 2.42619L3.25211 2.00851C3.41934 1.67431 3.73889 1.43953 4.10725 1.37968C4.47561 1.32008 4.85322 1.44184 5.11703 1.70565L5.49746 2.0866C8.50291 5.23744 11.195 6.73246 15.8493 7.75534C16.0571 5.96877 16.8295 4.30806 18.0757 3.00108C19.5586 1.44595 21.5389 0.573344 23.6517 0.543547H23.6655C25.207 0.543547 27.1192 1.4236 28.2757 2.04422C29.2677 1.71952 30.463 1.21682 31.7032 0.685342C32.2835 0.413054 32.9989 0.537638 33.4551 0.99385C33.9023 1.44107 34.0264 2.0717 33.789 2.68461C33.6988 2.93558 33.5966 3.18192 33.4828 3.42287C33.6526 3.5007 33.808 3.60628 33.9393 3.73754C34.3362 4.13442 34.5016 4.75554 34.3606 5.32016L34.3454 5.37384C33.8702 6.90534 32.9572 8.15273 31.7499 8.93568C31.5483 19.6734 23.4623 28.3401 13.5521 28.3401ZM3.25982 24.5473C5.26217 25.6801 9.07806 26.3655 13.5521 26.3655C17.8535 26.3655 21.9126 24.5188 24.9815 21.1655C28.0756 17.7848 29.7794 13.2954 29.7794 8.52417V8.47048C29.7794 8.03842 30.0173 7.64411 30.4 7.44118C31.1766 7.02992 31.8054 6.32942 32.2144 5.43369C31.7926 5.50023 31.3638 5.33094 31.1011 4.978C30.7956 4.56777 30.7923 4.01368 31.0926 3.59986C31.2547 3.37637 31.4016 3.1439 31.5326 2.90347C30.4617 3.35326 29.4447 3.75655 28.5618 4.02447C28.241 4.12157 27.8834 4.08355 27.5903 3.91992C26.0185 3.04423 24.5546 2.52072 23.672 2.51815C20.415 2.56799 17.7669 5.3574 17.7669 8.73943C17.7669 9.08904 17.6117 9.41681 17.3418 9.63901C17.0715 9.86095 16.7201 9.94983 16.3769 9.88202C11.0103 8.82471 7.83015 7.23928 4.52313 3.91607C4.0492 5.05172 3.91973 6.19559 4.13885 7.32507C4.36104 8.4692 4.95212 9.61564 5.84836 10.6403C6.18897 11.0292 6.23418 11.5856 5.96087 12.0246C5.68858 12.4621 5.17097 12.6666 4.67341 12.5332C4.2845 12.4289 3.92692 12.292 3.58785 12.1161C4.27859 13.6165 5.46664 15.0041 6.96012 16.0275C7.39295 16.3242 7.57379 16.8773 7.40014 17.3725C7.22624 17.8685 6.74049 18.1878 6.21543 18.1488C5.64337 18.1064 5.13655 17.9978 4.67007 17.8146C5.50748 19.52 6.84555 20.4584 8.90698 20.817C9.39787 20.9025 9.7801 21.2901 9.85819 21.7815C9.93654 22.2729 9.69328 22.76 9.25325 22.9935C7.49622 23.9249 5.57581 24.4248 3.25982 24.5473Z" fill="#999999"/>
</svg>
