<svg width="183" height="60" viewBox="0 0 183 60" fill="none" xmlns="http://www.w3.org/2000/svg">
<path fill-rule="evenodd" clip-rule="evenodd" d="M26.8001 35.6437C24.2159 36.8899 20.5161 37.9889 17.0042 37.9889C14.2229 37.9889 12.0372 37.1361 10.7792 35.4966C10.1153 34.5793 9.78488 33.1334 9.78488 32.2146C22.7684 32.5434 30.7834 29.5902 30.7834 21.3883C30.7834 15.4174 26.0802 11.8081 19.5233 11.8081C7.79931 11.8081 0.645203 21.9768 0.645203 31.7537C0.645203 40.0878 5.4136 45.272 14.6882 45.272C17.6605 45.272 21.9681 44.6504 25.3163 43.4223L26.8001 35.6437ZM21.8393 21.4544C21.8393 24.343 18.1303 25.3924 10.711 25.3279C11.3733 22.3071 13.8909 18.7009 18.3274 18.7009C20.5145 18.7009 21.8393 19.8164 21.8393 21.4544Z" fill="white"/>
<path fill-rule="evenodd" clip-rule="evenodd" d="M167.539 18.9625C171.378 18.9625 172.639 22.1124 172.639 25.0641C172.639 30.5771 169.723 38.1214 164.489 38.1214C161.179 38.1214 159.324 35.6292 159.324 31.8878C159.259 26.9032 162.038 18.9625 167.539 18.9625ZM168.797 11.8101C157.271 11.8101 149.453 20.9293 149.453 32.0844C149.453 40.0251 154.951 45.3385 163.166 45.3385C174.428 45.3385 182.506 36.7432 182.506 24.9995C182.506 17.7164 177.474 11.8101 168.797 11.8101Z" fill="white"/>
<path fill-rule="evenodd" clip-rule="evenodd" d="M146.059 36.4159C144.403 37.0735 142.416 37.7296 139.634 37.7296C136.058 37.7296 133.275 35.4985 133.275 31.1026C133.275 25.0656 137.448 19.3559 144.27 19.3559C146.192 19.3559 147.215 19.5706 148.344 20.027L149.777 12.5142C148.385 11.9212 147.186 11.8101 144.403 11.8101C132.082 11.8101 123.272 20.7327 123.272 32.152C123.272 40.4831 128.902 45.2739 136.919 45.2739C139.99 45.2739 142.544 44.9136 144.566 44.2395L146.059 36.4159Z" fill="white"/>
<path fill-rule="evenodd" clip-rule="evenodd" d="M95.2697 12.5361L101.695 41.601C101.827 42.3216 101.827 42.715 101.496 43.1759C100.303 45.3394 98.4481 47.2431 96.2625 48.7505C94.4072 50.0642 92.2883 50.8494 90.765 51.3103L92.884 59.3801C95.0029 59.0543 99.5076 57.4794 103.283 53.9347C107.588 49.932 111.43 44.0933 115.736 35.564L127.327 12.5361H117.259L111.363 26.6414C109.973 30.1186 109.244 32.219 108.515 34.1212H108.384C108.117 32.0869 107.785 29.7898 107.324 26.5093L105.335 12.5361H95.2697Z" fill="white"/>
<path fill-rule="evenodd" clip-rule="evenodd" d="M46.4896 7.94004C47.2838 7.74336 48.5433 7.61124 50.3319 7.61124C54.0408 7.61124 57.154 8.98949 57.154 13.2564C57.154 17.6523 53.3784 21.3262 47.6157 21.3262C46.0242 21.3262 44.9648 21.1941 43.9735 20.9974L46.4896 7.94004ZM30.1276 44.6183H39.4673L42.5154 28.6753C43.5082 28.8045 44.8344 28.9366 46.4244 28.9366C51.8552 28.9366 57.0222 27.6905 60.6659 24.8694C64.1748 22.1805 66.7606 17.9781 66.7606 12.4036C66.7606 8.13671 64.9053 5.05442 61.9255 3.02007C58.6788 0.724491 54.0438 0.0668945 50.0681 0.0668945C43.9023 0.0668945 41.1937 0.368668 35.4947 2.18682L34.2745 8.35591L37.1104 8.05714L30.1276 44.6183Z" fill="white"/>
<path fill-rule="evenodd" clip-rule="evenodd" d="M81.8875 32.3308C81.7693 32.9208 81.5844 33.5124 81.3464 34.0378C80.2778 36.0707 77.8951 37.7117 75.3776 37.7117C73.1252 37.7117 71.6535 36.4655 72.1658 33.9057C72.9418 30.0352 77.2964 28.7891 82.5832 28.8536L81.8875 32.3308ZM89.8146 44.0114C89.8389 42.2398 90.2966 39.2881 90.9135 36.2028L93.1492 25.0477C94.6588 17.5033 92.4777 11.2036 81.6814 11.2036C77.1812 11.2036 73.348 12.1209 70.6728 13.1103L69.0965 20.4565C71.4792 19.1458 75.2123 18.0288 78.5257 18.0288C83.4926 18.0288 83.9337 20.4565 83.5942 22.1636L83.5002 22.6215C72.0536 22.5569 63.7021 26.5595 62.0333 34.8936C61.0087 40.0102 63.9704 44.735 70.5273 44.735C74.3696 44.735 77.9558 43.3568 80.5901 40.797H80.7886L80.7416 44.0144H89.8146V44.0114Z" fill="white"/>
</svg>
