<svg width="32" height="32" viewBox="0 0 32 32" fill="none" xmlns="http://www.w3.org/2000/svg">
<path d="M23.0403 0.756836H9.01083C4.44481 0.756836 0.730194 4.47145 0.730194 9.03747V23.0672C0.730194 27.633 4.44481 31.3476 9.01083 31.3476H23.0405C27.6063 31.3476 31.3209 27.633 31.3209 23.0672V9.03747C31.3209 4.47145 27.6063 0.756836 23.0403 0.756836V0.756836ZM29.5276 23.0672C29.5276 26.6441 26.6174 29.5542 23.0403 29.5542H9.01083C5.43368 29.5542 2.52355 26.6441 2.52355 23.0672V9.03747C2.52355 5.46032 5.43368 2.5502 9.01083 2.5502H23.0405C26.6174 2.5502 29.5276 5.46032 29.5276 9.03747V23.0672Z" fill="#999999"/>
<path d="M16.0256 7.6875C11.4133 7.6875 7.66113 11.4397 7.66113 16.0519C7.66113 20.6641 11.4133 24.4163 16.0256 24.4163C20.6378 24.4163 24.39 20.6641 24.39 16.0519C24.39 11.4397 20.6378 7.6875 16.0256 7.6875ZM16.0256 22.623C12.4024 22.623 9.45449 19.6753 9.45449 16.0519C9.45449 12.4288 12.4024 9.48086 16.0256 9.48086C19.6489 9.48086 22.5966 12.4288 22.5966 16.0519C22.5966 19.6753 19.6489 22.623 16.0256 22.623Z" fill="#999999"/>
<path d="M24.59 4.71729C23.227 4.71729 22.1184 5.82612 22.1184 7.18887C22.1184 8.55186 23.227 9.66069 24.59 9.66069C25.953 9.66069 27.0618 8.55186 27.0618 7.18887C27.0618 5.82588 25.953 4.71729 24.59 4.71729ZM24.59 7.8671C24.2161 7.8671 23.9118 7.56276 23.9118 7.18887C23.9118 6.81475 24.2161 6.51064 24.59 6.51064C24.9641 6.51064 25.2685 6.81475 25.2685 7.18887C25.2685 7.56276 24.9641 7.8671 24.59 7.8671Z" fill="#999999"/>
</svg>
