<svg width="68" height="23" viewBox="0 0 68 23" fill="none" xmlns="http://www.w3.org/2000/svg">
<path d="M10.3944 13.2442C9.43557 13.6975 8.07303 14.1256 6.76096 14.1256C5.72644 14.1256 4.91901 13.7982 4.46483 13.1939C4.21251 12.8413 4.08635 12.3125 4.08635 11.96C8.88046 12.0859 11.8579 10.9779 11.8579 7.93094C11.8579 5.71497 10.1168 4.35516 7.69455 4.35516C3.37985 4.38035 0.730469 8.15758 0.730469 11.8089C0.730469 14.9062 2.49672 16.8452 5.9283 16.8452C7.03851 16.8452 8.62814 16.6186 9.86452 16.1653L10.3944 13.2442ZM8.57768 7.95612C8.57768 9.03893 7.21514 9.41665 4.46483 9.39147C4.71715 8.2583 5.65074 6.92368 7.29084 6.92368C8.07303 6.94886 8.57768 7.35177 8.57768 7.95612Z" fill="white"/>
<path d="M62.4735 7.05212C63.8865 7.05212 64.3659 8.23565 64.3659 9.31845C64.3659 11.3833 63.2809 14.1785 61.3633 14.1785C60.1269 14.1785 59.4456 13.2468 59.4456 11.8618C59.3951 9.99835 60.4297 7.05212 62.4735 7.05212ZM62.9277 4.38287C58.6634 4.38287 55.7617 7.78238 55.7617 11.9373C55.7617 14.8836 57.8055 16.8729 60.8334 16.8729C64.9967 16.8729 67.9993 13.6749 67.9993 9.29327C67.9993 6.57367 66.1321 4.38287 62.9277 4.38287Z" fill="white"/>
<path d="M54.5252 13.549C53.9196 13.8008 53.1879 14.0274 52.1534 14.0274C50.8413 14.0274 49.8068 13.1964 49.8068 11.5596C49.8068 9.31845 51.346 7.17802 53.8692 7.17802C54.5757 7.17802 54.9542 7.25357 55.3831 7.42984L55.913 4.63469C55.4083 4.40806 54.9542 4.38287 53.9196 4.38287C49.3526 4.38287 46.0977 7.70684 46.0977 11.9625C46.0977 15.0598 48.1919 16.8477 51.1441 16.8477C52.2795 16.8477 53.2131 16.7218 53.9701 16.47L54.5252 13.549Z" fill="white"/>
<path d="M35.7277 4.63614L38.0995 15.4642C38.15 15.7412 38.15 15.8923 38.0238 16.0434C37.5948 16.8492 36.8883 17.5543 36.0809 18.1334C35.3996 18.6119 34.6174 18.9141 34.0371 19.0903L34.8193 22.0869C35.6015 21.961 37.2668 21.3819 38.6546 20.0472C40.2442 18.5615 41.6572 16.3707 43.2721 13.1979L47.5616 4.61096H43.8777L41.7077 9.8739C41.203 11.1582 40.9255 11.964 40.6479 12.6691H40.5975C40.4965 11.9136 40.3704 11.0574 40.1938 9.82354L39.462 4.61096H35.7277V4.63614Z" fill="white"/>
<path d="M17.6866 2.94624C17.9894 2.8707 18.4435 2.82033 19.0996 2.82033C20.4621 2.82033 21.6228 3.32396 21.6228 4.93558C21.6228 6.57238 20.235 7.93218 18.0903 7.93218C17.51 7.93218 17.1062 7.88182 16.753 7.80628L17.6866 2.94624ZM11.6309 16.5946H15.0877L16.2231 10.6518C16.6016 10.7022 17.081 10.7525 17.6614 10.7525C19.6799 10.7525 21.5723 10.2992 22.9349 9.24162C24.2217 8.23436 25.1805 6.67311 25.1805 4.58304C25.1805 2.9966 24.4993 1.83825 23.3891 1.08281C22.2031 0.251815 20.4874 0 19.0239 0C16.753 0 15.7437 0.100726 13.6242 0.780628L13.17 3.07215L14.2298 2.97142L11.6309 16.5946Z" fill="white"/>
<path d="M30.7824 12.036C30.7319 12.2627 30.6815 12.4641 30.5805 12.6656C30.1768 13.421 29.2937 14.0254 28.3601 14.0254C27.5275 14.0254 26.9723 13.5721 27.1742 12.6152C27.4518 11.1799 29.0666 10.7014 31.0347 10.7266L30.7824 12.036ZM33.7093 16.3673C33.7093 15.7125 33.886 14.6045 34.1131 13.4462L34.9457 9.29124C35.5008 6.47091 34.6934 4.12903 30.7067 4.12903C29.0414 4.12903 27.6284 4.48157 26.6443 4.83411L26.064 7.5789C26.9471 7.10045 28.3349 6.67236 29.546 6.67236C31.388 6.67236 31.5394 7.5789 31.4132 8.20844L31.388 8.38471C27.149 8.35953 24.0706 9.84524 23.4398 12.9677C23.0614 14.8815 24.1463 16.6442 26.5939 16.6442C28.0069 16.6442 29.3442 16.1406 30.3282 15.1837H30.4039L30.3787 16.3924L33.7093 16.3673Z" fill="white"/>
</svg>
