<svg width="10" height="14" viewBox="0 0 10 14" fill="none" xmlns="http://www.w3.org/2000/svg">
<path fill-rule="evenodd" clip-rule="evenodd" d="M3.96791 9.89811L2.80545 8.73566L2.41797 9.12314L3.96791 10.6731L7.28921 7.35178L6.90173 6.96429L3.96791 9.89811Z" fill="white"/>
<path d="M8.46153 4.54625H7.85713V3.33747C7.85713 1.64516 6.52746 0.315491 4.83516 0.315491C3.14285 0.315491 1.81318 1.64516 1.81318 3.33747V4.54625H1.20879C0.543955 4.54625 0 5.09021 0 5.75504V11.799C0 12.4638 0.543955 13.0078 1.20879 13.0078H8.46153C9.12636 13.0078 9.67032 12.4638 9.67032 11.799V5.75504C9.67032 5.09021 9.12636 4.54625 8.46153 4.54625ZM3.02197 3.33747C3.02197 2.30999 3.80769 1.52428 4.83516 1.52428C5.86263 1.52428 6.64834 2.30999 6.64834 3.33747V4.54625H3.02197V3.33747ZM8.46153 11.799H1.20879V5.75504H8.46153V11.799Z" fill="white"/>
</svg>
