<svg width="15" height="19" viewBox="0 0 15 19" fill="none" xmlns="http://www.w3.org/2000/svg">
<path d="M14.9954 15.3018C14.6167 15.5314 14.2288 15.7425 13.8316 15.9351C11.8873 16.877 9.70982 17.4059 7.41225 17.4059C5.18396 17.4059 3.06881 16.9095 1.17303 16.0186C0.771248 15.8307 0.381006 15.6268 0.00231137 15.4041C2.2552e-06 15.4528 0 15.5015 0 15.5502C0 15.9701 0.034642 16.3808 0.0992972 16.7821C0.531101 17.0074 0.972142 17.2115 1.42704 17.3948C3.27433 18.1511 5.29711 18.5664 7.41225 18.5664C9.6036 18.5664 11.6933 18.1209 13.5961 17.3136C14.0486 17.1236 14.4871 16.9125 14.9169 16.6805C14.9723 16.3116 15 15.9358 15 15.5507C15 15.4665 14.9977 15.3853 14.9954 15.3018Z" fill="white"/>
<path d="M7.29763 0.52832C4.63984 0.52832 2.47852 2.69955 2.47852 5.37002C2.47852 6.75711 3.06041 8.01011 3.99329 8.88937C4.31195 9.19536 4.67448 9.45543 5.06703 9.6619C5.73436 10.0148 6.49175 10.214 7.29763 10.214C8.17048 10.214 8.99022 9.97973 9.6968 9.56934C10.0824 9.34871 10.4357 9.07264 10.7428 8.75481C11.5949 7.88252 12.1191 6.68775 12.1191 5.37002C12.1191 2.69955 9.95773 0.52832 7.29763 0.52832ZM9.52592 8.29337C8.90939 8.77105 8.13584 9.05408 7.29786 9.05408C6.51277 9.05408 5.7854 8.80585 5.18964 8.3813C4.24984 7.71571 3.6333 6.61374 3.6333 5.37026C3.6333 3.34031 5.27739 1.68852 7.29786 1.68852C9.32065 1.68852 10.9647 3.34031 10.9647 5.37026C10.9645 6.56015 10.4011 7.62036 9.52592 8.29337Z" fill="white"/>
<path d="M14.9954 15.3013C14.903 12.4176 13.1897 9.93781 10.742 8.75441C10.3541 8.56649 9.94766 8.41129 9.52486 8.29297C8.90833 8.77064 8.13477 9.05368 7.2968 9.05368C6.5117 9.05368 5.78433 8.80545 5.18858 8.3809C4.77294 8.51545 4.37346 8.68713 3.99246 8.88896C1.66025 10.1348 0.055421 12.5823 0.00231137 15.4033C2.2552e-06 15.4521 0 15.5008 0 15.5495C0 15.9694 0.034642 16.38 0.0992972 16.7814C0.531101 17.0066 0.972142 17.2108 1.42704 17.3941C1.29311 16.9554 1.20536 16.4939 1.17303 16.0181C1.15918 15.8627 1.15456 15.7073 1.15456 15.5495C1.15456 12.9001 2.77094 10.6243 5.06619 9.6615C5.81666 9.34808 6.6387 9.17408 7.5 9.17408C8.27124 9.17408 9.01247 9.31351 9.69597 9.5687C12.1159 10.4686 13.8457 12.8097 13.8457 15.5493C13.8457 15.6792 13.8408 15.8068 13.8316 15.9344C13.8062 16.41 13.7254 16.8716 13.5961 17.3122C14.0486 17.1222 14.4871 16.9111 14.9169 16.6791C14.9723 16.3102 15 15.9344 15 15.5493C15 15.466 14.9977 15.3848 14.9954 15.3013Z" fill="white"/>
</svg>
